<svg role="img" viewBox="0 0 24 24" xmlns="http://www.w3.org/2000/svg" id="Cloudinary--Streamline-Simple-Icons" height="24" width="24">
  <desc>
    Cloudinary Streamline Icon: https://streamlinehq.com
  </desc>
  <title>Cloudinary</title>
  <path d="M24 14.8598c0 2.1729 -1.3757 3.974 -3.5903 4.6996l-0.0995 0.0318V17.989c1.3777 -0.5805 2.1869 -1.7275 2.1869 -3.1291 -0.0072 -2 -1.6087 -3.6288 -3.6082 -3.6699h-0.5964l-0.1432 -0.5686c-0.7025 -2.8996 -3.2886 -4.9489 -6.2721 -4.97a6.3915 6.3915 0 0 0 -5.811 3.664l-0.1828 0.3757 -0.4175 0.0437a4.4311 4.4311 0 0 0 -3.3052 2.088c-1.2803 2.0856 -0.6274 4.8143 1.4583 6.0947v1.6897h-0.01l-0.149 -0.0675a5.9402 5.9402 0 0 1 -3.3658 -4.3494c-0.5787 -3.2291 1.57 -6.3161 4.7991 -6.8948a7.8766 7.8766 0 0 1 6.9839 -4.149c3.4724 0.025 6.535 2.28 7.5901 5.5883 2.5789 0.3366 4.5138 2.5245 4.5327 5.1251zm-15.3176 -1.322h0.5647a0.0656 0.0656 0 0 0 0.0457 -0.1113L7.084 11.2158l-0.0007 -0.0007a0.0656 0.0656 0 0 0 -0.0927 0.0007L4.78 13.4265a0.0656 0.0656 0 0 0 0.0477 0.1113h0.5566a0.0656 0.0656 0 0 1 0.0657 0.0656v5.0574c0 0.6588 0.534 1.1928 1.1928 1.1928H9.247a0.0656 0.0656 0 0 0 0.0457 -0.1113l-0.33 -0.33a1.1928 1.1928 0 0 1 -0.348 -0.839v-4.97a0.0676 0.0676 0 0 1 0.0676 -0.0655zm9.769 2.5466h0.5667a0.0655 0.0655 0 0 0 0.0457 -0.1133l-2.2107 -2.2087 -0.0015 -0.0015a0.0636 0.0636 0 0 0 -0.0899 0.0015L14.551 15.971a0.0657 0.0657 0 0 0 0.0457 0.1133h0.5567a0.0656 0.0656 0 0 1 0.0656 0.0656v2.5108c0 0.6588 0.534 1.1928 1.1928 1.1928h2.6063a0.0655 0.0655 0 0 0 0.0457 -0.1113l-0.33 -0.33a1.1928 1.1928 0 0 1 -0.348 -0.839V16.15a0.0656 0.0656 0 0 1 0.0657 -0.0656zm-4.8844 -1.2743h0.5646a0.0656 0.0656 0 0 0 0.0477 -0.1114l-2.2107 -2.2027 -0.0006 -0.0006a0.0656 0.0656 0 0 0 -0.0928 0.0006l-2.2087 2.2068a0.0656 0.0656 0 0 0 0.0457 0.1113h0.5626a0.0676 0.0676 0 0 1 0.0657 0.0676v3.7791c0 0.6588 0.534 1.1928 1.1928 1.1928h2.5983a0.0656 0.0656 0 0 0 0.0477 -0.1113l-0.332 -0.33a1.193 1.193 0 0 1 -0.346 -0.839v-3.6956c0 -0.0366 0.0291 -0.0665 0.0657 -0.0676z" fill="#000000" stroke-width="1"></path>
</svg>