<?xml version="1.0" encoding="utf-8"?>
<!-- Svg Vector Icons : http://www.onlinewebfonts.com/icon -->
<!DOCTYPE svg PUBLIC "-//W3C//DTD SVG 1.1//EN" "http://www.w3.org/Graphics/SVG/1.1/DTD/svg11.dtd">
<svg version="1.1" xmlns="http://www.w3.org/2000/svg" xmlns:xlink="http://www.w3.org/1999/xlink" x="0px" y="0px" viewBox="0 0 256 256" enable-background="new 0 0 256 256" xml:space="preserve">
<metadata> Svg Vector Icons : http://www.onlinewebfonts.com/icon </metadata>
<g><g><path fill="#000000" d="M128,10C62.8,10,10,62.8,10,128c0,65.2,52.8,118,118,118c65.2,0,118-52.8,118-118C246,62.8,193.2,10,128,10z M110,133.3c-11.2,28.1-16.8,44-16.8,47.6H82.1c0-4.6-4.9-20.9-14.8-48.8c-9.9-27.9-14.8-43.2-14.8-45.9h16.1c0,3.2,3.6,15.8,10.8,38c7.2,22.1,10.8,34.8,10.8,38h0.7c0-3.1,3.4-15.2,10.2-36.6c6.8-21.3,10.2-34.4,10.2-39.4h15.5C126.8,89.4,121.2,105.1,110,133.3z M200.9,179c-4.5,3.1-10.5,4.6-18,4.6c-14.3,0-25.3-4.7-32.8-14.3c-7.6-9.5-11.4-21-11.4-34.4c0-14.2,4-26.4,11.9-36.7c8-10.2,18.5-15.3,31.6-15.3c6.6,0,11.9,0.8,16.1,2.4l-2.2,15.7c-5.8-2.6-11.7-3.9-17.7-3.9c-7.9,0-14.1,3.3-18.7,9.9c-4.6,6.6-7,14.8-7,24.7c0,10.8,2.8,19.7,8.3,26.9c5.5,7.2,13.4,10.8,23.5,10.8c4.1,0,9.9-1.2,17.2-3.7L200.9,179z"/></g></g>
</svg>